<?xml version="1.0" standalone="no"?><!DOCTYPE svg PUBLIC "-//W3C//DTD SVG 1.1//EN" "http://www.w3.org/Graphics/SVG/1.1/DTD/svg11.dtd"><svg t="1545209023949" class="icon" style="" viewBox="0 0 1024 1024" version="1.1" xmlns="http://www.w3.org/2000/svg" p-id="10562" xmlns:xlink="http://www.w3.org/1999/xlink" width="200" height="200"><defs><style type="text/css"></style></defs><path d="M741.1 152.1v393c0 17.7-14.3 32-32 32s-32-14.3-32-32v-393c0-48.6-39.5-88.1-88.1-88.1H443.6c-48.6 0-88.1 39.5-88.1 88.1v426c0 17.7-14.3 32-32 32s-32-14.3-32-32v-426C291.5 68.2 359.7 0 443.6 0H589c83.9 0 152.1 68.2 152.1 152.1z" fill="#1296db" p-id="10563"></path><path d="M355.5 578.3c0 17.7-14.3 32-32 32h-156l348.8 348.8 352.3-352.3c12.5-12.5 32.8-12.5 45.3 0s12.5 32.8 0 45.3l-353.7 353.7c-11.7 11.7-27.3 18.2-43.9 18.2-16.6 0-32.1-6.5-43.9-18.2L118.9 652.1c-17.9-17.8-23.1-44.3-13.5-67.6s32.1-38.3 57.3-38.3h160.8c17.7 0 32.1 14.4 32 32.1z" fill="#1296db" p-id="10564"></path></svg>