<?xml version="1.0" standalone="no"?><!DOCTYPE svg PUBLIC "-//W3C//DTD SVG 1.1//EN" "http://www.w3.org/Graphics/SVG/1.1/DTD/svg11.dtd"><svg t="1545208994984" class="icon" style="" viewBox="0 0 1024 1024" version="1.1" xmlns="http://www.w3.org/2000/svg" p-id="8960" xmlns:xlink="http://www.w3.org/1999/xlink" width="200" height="200"><defs><style type="text/css"></style></defs><path d="M822.912547 312.069904H201.073126c-34.815877 0-63.051909 28.237055-63.051908 63.067259v578.828924c0 34.830203 28.236031 63.052932 63.051908 63.052932h621.840445c34.830203 0 63.066235-28.222729 63.066235-63.052932V375.137163c-0.001023-34.830203-28.237055-63.067258-63.067259-63.067259zM201.073126 913.19151h291.30297v40.7756H201.073126v-40.7756z m333.360771 40.7756v-40.7756h173.193205c11.611432 0 21.022761-9.399049 21.02276-21.008434 0-11.597106-9.411328-21.022761-21.02276-21.022761H534.433897v-339.061598c0-11.609386-9.425655-21.036063-21.022761-21.036064-11.629852 0-21.036063 9.426678-21.036063 21.036064v339.061598H201.073126V375.137163h291.30297v70.746132c0 11.609386 9.405188 21.021737 21.036064 21.021738 11.597106 0 21.022761-9.412352 21.02276-21.021738v-70.746132h288.478651v496.023152h-26.601815c-11.623712 0-21.022761 9.425655-21.022761 21.022761 0 11.610409 9.399049 21.008434 21.022761 21.008434h26.601815v40.7756h-288.479674zM284.591118 200.872559c39.798345 33.491722 193.167078 62.742871 223.494744 68.280993 1.267874 0.210801 2.508118 0.33769 3.775992 0.33769a0.454347 0.454347 0 0 1 0.196474 0c0.225127 0 0.46458-0.056282 0.690731-0.084934 0.22615 0.027629 0.436951 0.084934 0.661054 0.084934 1.240245 0 2.509142-0.12689 3.748363-0.33769 30.321525-5.538122 183.704585-34.789271 223.50907-68.280993 22.446177-18.880985 36.197338-45.369213 38.705456-74.620362 2.536771-29.236823-6.467282-57.697981-25.362593-80.129832-20.936803-24.882664-51.569413-39.142407-84.116625-39.142407-25.783171 0-50.878682 9.12992-70.646872 25.770891-28.29129 23.797961-64.320806 104.462981-86.624743 159.512652-22.3111-55.04967-58.33243-135.71469-86.63907-159.526978-19.753863-16.626646-44.840165-25.756566-70.632545-25.756565-32.554375 0-63.208474 14.259743-84.123788 39.128081-18.872798 22.445153-27.911644 50.907335-25.38306 80.143134 2.528585 29.251149 16.295095 55.740401 38.747412 74.621386zM626.301027 64.932742a67.78776 67.78776 0 0 1 43.594804-15.907263c20.10588 0 39.029844 8.792229 51.963385 24.164304 11.638038 13.836095 17.204813 31.421577 15.654507 49.45629-1.563609 18.049039-10.045777 34.421905-23.910525 46.088595-20.120206 16.908055-101.982492 38.170268-166.966399 51.780214 24.558276-61.686821 59.542999-138.674086 79.664228-155.58214z m-322.906695 8.242715c12.920238-15.357749 31.843179-24.149978 51.956222-24.149978a67.870648 67.870648 0 0 1 43.580477 15.879634c20.113043 16.95001 55.112092 93.923972 79.685718 155.608746-64.982884-13.596642-146.830843-34.857833-166.973562-51.780214-13.856562-11.666691-22.353056-28.038534-23.910525-46.088596-1.570772-18.034712 4.009306-35.619171 15.66167-49.469592z" p-id="8961" fill="#d81e06"></path></svg>