<?xml version="1.0" standalone="no"?><!DOCTYPE svg PUBLIC "-//W3C//DTD SVG 1.1//EN" "http://www.w3.org/Graphics/SVG/1.1/DTD/svg11.dtd"><svg t="1545196853607" class="icon" style="" viewBox="0 0 1024 1024" version="1.1" xmlns="http://www.w3.org/2000/svg" p-id="2027" xmlns:xlink="http://www.w3.org/1999/xlink" width="200" height="200"><defs><style type="text/css"></style></defs><path d="M576 908.8v-371.2c0-6.4 3.2-12.8 6.4-19.2l252.8-358.4h-643.2l252.8 358.4c3.2 6.4 6.4 12.8 6.4 19.2v275.2l124.8 96z m64 0c0 35.2-28.8 64-64 64-12.8 0-25.6-3.2-38.4-12.8l-140.8-105.6c-9.6-6.4-12.8-16-12.8-25.6v-281.6l-281.6-400a32 32 0 0 1 25.6-51.2h768c25.6 0 41.6 28.8 25.6 51.2l-281.6 400v361.6z" p-id="2028"></path></svg>