<?xml version="1.0" standalone="no"?><!DOCTYPE svg PUBLIC "-//W3C//DTD SVG 1.1//EN" "http://www.w3.org/Graphics/SVG/1.1/DTD/svg11.dtd"><svg t="1545208422128" class="icon" style="" viewBox="0 0 1025 1024" version="1.1" xmlns="http://www.w3.org/2000/svg" p-id="6135" xmlns:xlink="http://www.w3.org/1999/xlink" width="200.1953125" height="200"><defs><style type="text/css"></style></defs><path d="M522.686907 518.314991m-485.282732 0a485.282732 485.282732 0 1 0 970.565464 0 485.282732 485.282732 0 1 0-970.565464 0Z" fill="#D9B142" p-id="6136"></path><path d="M522.686907 518.314991m-431.362429 0a431.362429 431.362429 0 1 0 862.724858 0 431.362429 431.362429 0 1 0-862.724858 0Z" fill="#FDD158" p-id="6137"></path><path d="M643.643264 407.559772m-66.064516 0a66.064516 66.064516 0 1 0 132.129032 0 66.064516 66.064516 0 1 0-132.129032 0Z" fill="#FBE6A3" p-id="6138"></path><path d="M466.337761 773.343454h113.184061v22.345351H466.337761z" fill="" p-id="6139"></path><path d="M511.79112 840.816698v-113.18406h22.345351v113.18406zM186.535104 508.113852h113.184061v22.345351H186.535104z" fill="" p-id="6140"></path><path d="M231.653283 575.698824v-113.184061h22.345351v113.184061z" fill="" p-id="6141"></path><path d="M412.417457 407.559772h221.024668v221.024668H412.417457z" fill="#F5D894" p-id="6142"></path><path d="M466.337761 233.16888h113.184061v22.345351H466.337761z" fill="" p-id="6143"></path><path d="M511.961139 300.476964v-113.184061h22.345351v113.184061z" fill="" p-id="6144"></path><path d="M460.02277 455.165085h126.299811v126.299811h-126.299811z" fill="#E1AD4A" p-id="6145"></path><path d="M522.686907 32.54649c-268.144213 0-485.282732 217.13852-485.282732 485.282732s217.13852 485.282732 485.282732 485.282732 485.282732-217.13852 485.282732-485.282732-217.13852-485.282732-485.282732-485.282732z m0 953.563567c-258.914611 0-468.280835-209.851992-468.280835-468.280835s209.851992-468.280835 468.280835-468.280835S990.967742 259.40038 990.967742 517.829222 781.601518 986.110057 522.686907 986.110057z" fill="" p-id="6146"></path><path d="M737.882353 508.113852h113.184061v22.345351h-113.184061z" fill="" p-id="6147"></path><path d="M783.000531 575.698824v-113.184061h22.345351v113.184061z" fill="" p-id="6148"></path><path d="M522.686907 77.237192c-244.341556 0-442.535104 198.193548-442.535104 442.049336 0 244.341556 198.193548 442.535104 442.535104 442.535104s442.049336-198.193548 442.049336-442.535104c0.485769-244.341556-197.70778-442.049336-442.049336-442.049336z m0 869.039848c-235.597723 0-426.990512-190.907021-426.990512-426.990512S287.089184 92.296015 522.686907 92.296015c235.597723 0 426.990512 190.907021 426.990512 426.990513s-191.392789 426.990512-426.990512 426.990512z" fill="" p-id="6149"></path><path d="M412.417457 407.559772v221.024668h221.024668V407.559772H412.417457z m210.82353 210.82353H422.132827V417.275142h201.10816v201.10816z" fill="" p-id="6150"></path><path d="M455.165085 455.165085v135.043644h135.043644V455.165085H455.165085z m129.214422 128.728653H461.480076V460.994307h122.899431v122.899431z" fill="" p-id="6151"></path></svg>