<?xml version="1.0" standalone="no"?><!DOCTYPE svg PUBLIC "-//W3C//DTD SVG 1.1//EN" "http://www.w3.org/Graphics/SVG/1.1/DTD/svg11.dtd"><svg t="1545208395723" class="icon" style="" viewBox="0 0 1024 1024" version="1.1" xmlns="http://www.w3.org/2000/svg" p-id="4121" xmlns:xlink="http://www.w3.org/1999/xlink" width="200" height="200"><defs><style type="text/css"></style></defs><path d="M634.6 327.2c-20.4-14.2-69.4-32.2-122.6-33.2h-2c-53.4 1-102 18.4-122.4 32.6 0 0-234 106.8-202.6 484 5.2 75.4 58.8 97.6 85.8 101.4 14.4 2 128.4 2.4 240.4 2 111.8 0.4 226.2 0.2 240.4-1.8 26.8-3.8 80.4-26 85.6-101.4 31-377-202.6-483.6-202.6-483.6zM510 293.4h2c20.2-7 188.2-68.2 142-171.8-42.6-95.4-132.6-19.2-143-10-10.4-9.2-100.4-85.4-143 10-46.2 103.6 121.8 164.8 142 171.8z" fill="#F17954" p-id="4122"></path><path d="M512 110.8v182.6c20.2-7 188.2-68.2 142-171.8-41.4-92.8-127.8-23.2-142-10.8zM751.6 912.2c26.8-3.8 80.4-26 85.6-101.4 31-377-202.6-483.6-202.6-483.6-20.4-14.2-69.4-32.2-122.6-33.2v620c111.6 0.4 225.4 0.2 239.6-1.8z" fill="#D85735" p-id="4123"></path><path d="M453.2 233H564c27.6 0 50 22.4 50 50v1.4c0 27.6-22.4 50-50 50h-110.6c-27.6 0-50-22.4-50-50v-1.4c-0.2-27.6 22.2-50 49.8-50z" fill="#FAD996" p-id="4124"></path><path d="M564 233h-52v101.4h52c27.6 0 50-22.4 50-50v-1.4c0-27.6-22.4-50-50-50z" fill="#EDC072" p-id="4125"></path><path d="M694.8 733.6v-22.2l-42.6-24.6 37.2-21.6v-22.2l-19.2-11.2-56.4 32.6-63-36.4 63.2-36.6 56.4 32.6 19.2-11.2v-22.2l-37.2-21.4 42.6-24.6v-22.2l-19.2-11.2-42.6 24.6v-43l-19.2-11.2-19.2 11.2V558l-63.2 36.6v-73l56.4-32.6v-22.2l-19.2-11.2-37.2 21.4v-49.2l-19.2-11.2-19.2 11.2v49.2L456 455.6l-19.2 11.2v22.2l56.4 32.6v73l-63-36.4v-65.2l-19.2-11.2-19.2 11.2V536l-42.6-24.6-19.2 11.2v22.2l42.6 24.6-37.2 21.4v22.2l19.2 11.2 56.4-32.6L474 628l-63.2 36.6L354 632l-19.2 11.2v22.2l37.2 21.4-42.6 24.6v22.2l19.2 11.2 42.6-24.6v43l19.2 11.2 19.2-11.2V698l63.2-36.6v73l-56.4 32.6v22.2l19.2 11.2 37.2-21.4v49.2l19.2 11.2 19.2-11.2v-49.2l37.2 21.4 19.2-11.2v-22.2l-56.4-32.6v-73l63 36.4v65.2l19.2 11.2 19.2-11.2V720l42.6 24.6 19.6-11z" fill="#FFFFFF" p-id="4126"></path><path d="M633.2 535.8v-43l-19.2-11.2-19.2 11.2V558l-63.2 36.6v-73l56.4-32.6v-22.2l-19.2-11.2-37.2 21.4v-49.2l-19.2-11.2-0.4 0.2v422.6l19.2-11.2v-49.2l37.2 21.4 19.2-11.2v-22.2l-56.4-32.6v-73l63 36.4v65.2l19.2 11.2 19.2-11.2V720l42.6 24.6 19.6-11v-22.2l-42.6-24.6 37.2-21.6v-22.2l-19.2-11.2-56.4 32.6-63-36.4 63.2-36.6 56.4 32.6 19.2-11.2v-22.2l-37.2-21.4 42.6-24.6v-22.2l-19.2-11.2z" fill="#E8E3DD" p-id="4127"></path></svg>